<?xml version="1.0" encoding="UTF-8" standalone="no"?>
<!-- Created with Inkscape (http://www.inkscape.org/) -->

<svg
   width="21.018354mm"
   height="4.3926034mm"
   viewBox="0 0 21.018353 4.3926034"
   version="1.1"
   id="svg1"
   inkscape:export-filename="icon_Xlarge.png"
   inkscape:export-xdpi="10238.123"
   inkscape:export-ydpi="10238.123"
   inkscape:version="1.3 (0e150ed6c4, 2023-07-21)"
   sodipodi:docname="icon_Xlarge.svg"
   xmlns:inkscape="http://www.inkscape.org/namespaces/inkscape"
   xmlns:sodipodi="http://sodipodi.sourceforge.net/DTD/sodipodi-0.dtd"
   xmlns="http://www.w3.org/2000/svg"
   xmlns:svg="http://www.w3.org/2000/svg">
  <sodipodi:namedview
     id="namedview1"
     pagecolor="#ffffff"
     bordercolor="#eeeeee"
     borderopacity="1"
     inkscape:showpageshadow="0"
     inkscape:pageopacity="0"
     inkscape:pagecheckerboard="0"
     inkscape:deskcolor="#505050"
     inkscape:document-units="mm"
     inkscape:zoom="11.313709"
     inkscape:cx="40.128308"
     inkscape:cy="2.1655144"
     inkscape:window-width="1920"
     inkscape:window-height="1001"
     inkscape:window-x="-7"
     inkscape:window-y="-7"
     inkscape:window-maximized="1"
     inkscape:current-layer="g35" />
  <defs
     id="defs1" />
  <g
     inkscape:label="Layer 1"
     inkscape:groupmode="layer"
     id="layer1"
     transform="translate(-2.1920766,4.3858756)">
    <g
       id="g35"
       transform="translate(-1.0289875,-0.37417734)">
      <path
         style="font-size:5.74246px;font-family:Gadugi;-inkscape-font-specification:'Gadugi, Normal';fill:#89a02c;fill-opacity:1;stroke-width:0.4;stroke-linecap:round"
         d="m 23.997451,6.4246167 c -0.08599,0 -0.160001,0.03153 -0.221691,0.09509 -0.05982,0.06169 -0.0894,0.135702 -0.0894,0.221692 0,0.08599 0.02958,0.1600021 0.0894,0.221692 0.06169,0.06169 0.135702,0.0925 0.221691,0.0925 0.08786,0 0.162586,-0.03081 0.224276,-0.0925 0.06169,-0.06169 0.0925,-0.135702 0.0925,-0.221692 0,-0.08599 -0.03081,-0.160002 -0.0925,-0.221692 -0.06169,-0.06355 -0.136416,-0.09509 -0.224276,-0.09509 z"
         id="path28" />
      <path
         style="font-size:5.74246px;font-family:Gadugi;-inkscape-font-specification:'Gadugi, Normal';fill:#536c53;stroke-width:0.4;stroke-linecap:round"
         d="m 5.9375717,4.5120724 v 2.4815024 h 0.459403 V 4.5120724 Z"
         id="path27" />
      <path
         style="font-size:5.74246px;font-family:Gadugi;-inkscape-font-specification:'Gadugi, Normal';fill:#536c53;stroke-width:0.4;stroke-linecap:round"
         d="m 19.289729,4.1224321 0.869197,2.8711427 h 0.45992 l 0.641822,-2.0608564 c 0.03365,-0.1065494 0.05331,-0.1931552 0.05891,-0.2604492 h 0.01137 c 0.0075,0.099072 0.02253,0.1876237 0.04496,0.2661336 l 0.591695,2.055172 h 0.476457 l 0.860929,-2.8711427 h -0.454236 l -0.583426,2.1647257 c -0.02805,0.09907 -0.04384,0.184965 -0.04754,0.2578649 h -0.02222 c -0.0093,-0.10281 -0.02368,-0.1887049 -0.04237,-0.2578649 L 21.560908,4.1224321 h -0.420646 l -0.661459,2.1533566 c -0.02805,0.09347 -0.04504,0.1813001 -0.05064,0.2635501 h -0.02274 c -0.0075,-0.106548 -0.02058,-0.192435 -0.03927,-0.2578651 L 19.77187,4.1224321 Z"
         id="path26" />
      <path
         style="font-size:5.74246px;font-family:Gadugi;-inkscape-font-specification:'Gadugi, Normal';fill:#536c53;stroke-width:0.4;stroke-linecap:round"
         d="m 17.590607,4.0552526 c -0.448628,0 -0.804582,0.1356468 -1.068151,0.4066935 -0.26357,0.2710468 -0.395842,0.6473704 -0.395842,1.1296466 0,0.443022 0.126435,0.7989751 0.378788,1.068152 0.254224,0.267309 0.593697,0.401009 1.018026,0.401009 0.435545,0 0.782285,-0.137076 1.040247,-0.411861 0.25983,-0.276655 0.38964,-0.644283 0.38964,-1.102258 0,-0.4673223 -0.120596,-0.8324878 -0.361735,-1.0960574 C 18.352311,4.1870077 18.018675,4.0552526 17.590607,4.0552526 Z m -0.03359,0.3870565 c 0.297216,0 0.525307,0.097049 0.684196,0.291455 0.160759,0.1944061 0.240812,0.47102 0.240812,0.8299236 0,0.3551651 -0.08005,0.629118 -0.240812,0.821655 -0.158889,0.1925351 -0.38698,0.288871 -0.684196,0.288871 -0.291609,0 -0.524305,-0.09828 -0.698149,-0.2945549 -0.173846,-0.196275 -0.260966,-0.464392 -0.260966,-0.8046021 0,-0.3532955 0.08589,-0.6299098 0.257866,-0.8299237 0.171974,-0.2018831 0.405901,-0.3028239 0.701249,-0.3028239 z"
         id="path25" />
      <path
         style="font-size:5.74246px;font-family:Gadugi;-inkscape-font-specification:'Gadugi, Normal';fill:#536c53;stroke-width:0.4;stroke-linecap:round"
         d="m 10.252554,4.0552526 c -0.3757273,0 -0.6904223,0.1409674 -0.9446453,0.42323 -0.252354,0.2803932 -0.378788,0.6441298 -0.378788,1.0908891 0,0.472931 0.11599,0.840041 0.347782,1.101742 0.231792,0.259831 0.550378,0.38964 0.9560143,0.38964 0.414982,0 0.748618,-0.09121 1.000972,-0.274402 v -0.432015 c -0.271046,0.213099 -0.568031,0.319877 -0.891418,0.319877 -0.287871,0 -0.5140153,-0.08712 -0.6785123,-0.260966 -0.164501,-0.173843 -0.250882,-0.420357 -0.258382,-0.740006 h 2.0272673 v -0.241329 c 0,-0.4318058 -0.10237,-0.7693338 -0.307992,-1.0123413 C 10.91923,4.176564 10.628281,4.0552526 10.252554,4.0552526 Z m -0.0083,0.3870565 c 0.224315,0 0.398757,0.073501 0.523999,0.2211751 0.127115,0.1476738 0.191919,0.3541615 0.193786,0.6196004 H 9.4112617 C 9.4467817,5.0326 9.5404517,4.830004 9.6918647,4.674853 9.8432777,4.5197026 10.027449,4.4423091 10.244286,4.4423091 Z"
         id="path24" />
      <path
         style="font-size:5.74246px;font-family:Gadugi;-inkscape-font-specification:'Gadugi, Normal';fill:#536c53;stroke-width:0.4;stroke-linecap:round"
         d="m 12.189903,2.9726314 v 4.0209434 h 0.47129 V 5.2133215 h 1.452624 V 4.7895747 H 12.661193 V 3.398962 h 1.570446 V 2.9726314 Z"
         id="path23" />
      <path
         style="font-size:5.74246px;font-family:Gadugi;-inkscape-font-specification:'Gadugi, Normal';fill:#536c53;stroke-width:0.4;stroke-linecap:round"
         d="m 3.2958727,2.9726314 v 4.0209434 h 2.086177 V 6.5672437 H 3.7671617 V 2.9726314 Z"
         id="path22" />
      <path
         style="font-size:5.74246px;font-family:Gadugi;-inkscape-font-specification:'Gadugi, Normal';fill:#536c53;stroke-width:0.4;stroke-linecap:round"
         d="m 14.932372,2.7426713 v 4.2509035 h 0.45992 V 2.7426713 Z"
         id="path21" />
      <path
         style="font-size:5.74246px;font-family:Gadugi;-inkscape-font-specification:'Gadugi, Normal';fill:#536c53;stroke-width:0.4;stroke-linecap:round"
         d="m 8.4133897,2.6811764 c -0.259831,0 -0.476763,0.087837 -0.650606,0.2635497 -0.173846,0.1738439 -0.260966,0.411146 -0.260966,0.7121013 v 0.4656047 h -0.49041 v 0.3927407 h 0.49041 v 2.478402 h 0.457336 v -2.478402 h 0.672827 V 4.1224321 H 7.9591537 V 3.679565 c 0,-0.4056355 0.160623,-0.6087484 0.482141,-0.6087484 0.114027,0 0.215678,0.025493 0.305408,0.075964 V 2.7318193 c -0.08225,-0.033647 -0.193116,-0.050643 -0.333313,-0.050643 z"
         id="text1" />
      <rect
         style="fill:#89a02c;fill-opacity:1;stroke:none;stroke-width:0.73835;stroke-linecap:round"
         id="rect4"
         width="0.46095377"
         height="1.4222423"
         x="5.937571"
         y="2.6681502"
         ry="0.0067420718" />
      <rect
         style="fill:#89a02c;fill-opacity:1;stroke:none;stroke-width:0.73835;stroke-linecap:round"
         id="rect4-4"
         width="0.46095377"
         height="1.4222423"
         x="3.1487944"
         y="-6.879169"
         ry="0.0067420718"
         transform="rotate(90)" />
      <path
         style="font-size:5.74246px;font-family:Gadugi;-inkscape-font-specification:'Gadugi, Normal';fill:#b5b4bd;fill-opacity:1;stroke-width:0.4;stroke-linecap:round"
         d="m 23.922642,-0.25523161 c -0.08599,0 -0.160001,0.03153 -0.221691,0.09509 -0.05982,0.06169 -0.0894,0.135702 -0.0894,0.221692 0,0.08599 0.02958,0.160003 0.0894,0.221692 0.06169,0.06169 0.135702,0.0925 0.221691,0.0925 0.08786,0 0.162586,-0.03081 0.224276,-0.0925 0.06169,-0.06169 0.0925,-0.135702 0.0925,-0.221692 0,-0.08599 -0.03081,-0.160002 -0.0925,-0.221692 -0.06169,-0.06355 -0.136416,-0.09509 -0.224276,-0.09509 z"
         id="path28-4" />
      <path
         style="font-size:5.74246px;font-family:Gadugi;-inkscape-font-specification:'Gadugi, Normal';fill:#b5b4bd;fill-opacity:1;stroke-width:0.4;stroke-linecap:round"
         d="m 5.8627631,-2.1677759 v 2.48150289 h 0.459403 V -2.1677759 Z"
         id="path27-6" />
      <path
         style="font-size:5.74246px;font-family:Gadugi;-inkscape-font-specification:'Gadugi, Normal';fill:#b5b4bd;fill-opacity:1;stroke-width:0.4;stroke-linecap:round"
         d="m 19.21492,-2.5574162 0.869197,2.87114319 h 0.45992 l 0.641822,-2.06085689 c 0.03365,-0.1065494 0.05331,-0.1931552 0.05891,-0.2604492 h 0.01137 c 0.0075,0.099072 0.02253,0.1876237 0.04496,0.2661336 l 0.591695,2.05517249 h 0.476457 L 23.23018,-2.5574162 h -0.454236 l -0.583426,2.16472569 c -0.02805,0.09907 -0.04384,0.184965 -0.04754,0.2578645 h -0.02222 c -0.0093,-0.1028096 -0.02368,-0.1887045 -0.04237,-0.2578645 L 21.486099,-2.5574162 h -0.420646 l -0.661459,2.15335659 c -0.02805,0.09347 -0.04504,0.1813001 -0.05064,0.2635506 h -0.02274 c -0.0075,-0.1065485 -0.02058,-0.1924355 -0.03927,-0.2578656 L 19.697061,-2.5574162 Z"
         id="path26-61" />
      <path
         style="font-size:5.74246px;font-family:Gadugi;-inkscape-font-specification:'Gadugi, Normal';fill:#b5b4bd;fill-opacity:1;stroke-width:0.4;stroke-linecap:round"
         d="m 17.515798,-2.6245957 c -0.448628,0 -0.804582,0.1356468 -1.068151,0.4066935 -0.26357,0.2710468 -0.395842,0.6473704 -0.395842,1.1296466 0,0.44302199 0.126435,0.79897509 0.378788,1.06815159 0.254224,0.267309 0.593697,0.401009 1.018026,0.401009 0.435545,0 0.782285,-0.137076 1.040247,-0.411861 0.25983,-0.2766546 0.38964,-0.6442826 0.38964,-1.10225759 0,-0.4673223 -0.120596,-0.8324878 -0.361735,-1.0960574 -0.239269,-0.2635696 -0.572905,-0.3953247 -1.000973,-0.3953247 z m -0.03359,0.3870565 c 0.297216,0 0.525307,0.097049 0.684196,0.291455 0.160759,0.1944061 0.240812,0.47102 0.240812,0.8299236 0,0.35516509 -0.08005,0.62911799 -0.240812,0.82165499 -0.158889,0.1925356 -0.38698,0.2888706 -0.684196,0.2888706 -0.291609,0 -0.524305,-0.09828 -0.698149,-0.2945545 -0.173846,-0.196275 -0.260966,-0.464392 -0.260966,-0.80460209 0,-0.3532955 0.08589,-0.6299098 0.257866,-0.8299237 0.171974,-0.2018831 0.405901,-0.3028239 0.701249,-0.3028239 z"
         id="path25-4" />
      <path
         style="font-size:5.74246px;font-family:Gadugi;-inkscape-font-specification:'Gadugi, Normal';fill:#b5b4bd;fill-opacity:1;stroke-width:0.4;stroke-linecap:round"
         d="m 10.177745,-2.6245957 c -0.3757269,0 -0.6904219,0.1409674 -0.9446449,0.42323 -0.252354,0.2803932 -0.378788,0.6441298 -0.378788,1.0908891 0,0.47293099 0.11599,0.84004099 0.347782,1.10174159 0.231792,0.259831 0.550378,0.38964 0.9560139,0.38964 0.414982,0 0.748618,-0.09121 1.000972,-0.274402 v -0.4320146 c -0.271046,0.2130986 -0.568031,0.3198766 -0.891418,0.3198766 -0.2878709,0 -0.5140149,-0.08712 -0.6785119,-0.2609656 -0.164501,-0.173843 -0.250882,-0.420357 -0.258382,-0.74000599 h 2.0272669 v -0.241329 c 0,-0.4318058 -0.10237,-0.7693338 -0.307992,-1.0123413 -0.205622,-0.2430074 -0.496571,-0.3643188 -0.872298,-0.3643188 z m -0.0083,0.3870565 c 0.224315,0 0.398757,0.073501 0.523999,0.2211751 0.127115,0.1476738 0.191919,0.3541615 0.193786,0.6196004 H 9.3364531 c 0.03552,-0.2504846 0.12919,-0.4530806 0.280603,-0.6082316 0.151413,-0.1551504 0.335584,-0.2325439 0.5524209,-0.2325439 z"
         id="path24-8" />
      <path
         style="font-size:5.74246px;font-family:Gadugi;-inkscape-font-specification:'Gadugi, Normal';fill:#b5b4bd;fill-opacity:1;stroke-width:0.4;stroke-linecap:round"
         d="m 12.115094,-3.7072169 v 4.02094389 h 0.47129 V -1.4665268 h 1.452624 v -0.4237468 h -1.452624 v -1.3906127 h 1.570446 v -0.4263306 z"
         id="path23-7" />
      <path
         style="font-size:5.74246px;font-family:Gadugi;-inkscape-font-specification:'Gadugi, Normal';fill:#b5b4bd;fill-opacity:1;stroke-width:0.4;stroke-linecap:round"
         d="m 3.2210641,-3.7072169 v 4.02094389 h 2.086177 v -0.426332 H 3.6923531 V -3.7072169 Z"
         id="path22-5" />
      <path
         style="font-size:5.74246px;font-family:Gadugi;-inkscape-font-specification:'Gadugi, Normal';fill:#b5b4bd;fill-opacity:1;stroke-width:0.4;stroke-linecap:round"
         d="m 14.857563,-3.937177 v 4.25090399 h 0.45992 V -3.937177 Z"
         id="path21-9" />
      <path
         style="font-size:5.74246px;font-family:Gadugi;-inkscape-font-specification:'Gadugi, Normal';fill:#b5b4bd;fill-opacity:1;stroke-width:0.4;stroke-linecap:round"
         d="m 8.3385811,-3.9986719 c -0.259831,0 -0.476763,0.087837 -0.650606,0.2635497 -0.173846,0.1738439 -0.260966,0.411146 -0.260966,0.7121013 v 0.4656047 h -0.49041 v 0.3927407 h 0.49041 v 2.47840249 h 0.457336 V -2.1646755 h 0.672827 v -0.3927407 h -0.672827 v -0.4428671 c 0,-0.4056355 0.160623,-0.6087484 0.482141,-0.6087484 0.114027,0 0.215678,0.025493 0.305408,0.075964 V -3.948029 c -0.08225,-0.033647 -0.193116,-0.050643 -0.333313,-0.050643 z"
         id="text1-0" />
      <rect
         style="fill:#b5b4bd;fill-opacity:1;stroke:none;stroke-width:0.73835;stroke-linecap:round"
         id="rect4-94"
         width="0.46095377"
         height="1.4222423"
         x="5.862762"
         y="-4.0116982"
         ry="0.0067420718" />
      <rect
         style="fill:#b5b4bd;fill-opacity:1;stroke:none;stroke-width:0.73835;stroke-linecap:round"
         id="rect4-4-1"
         width="0.46095377"
         height="1.4222423"
         x="-3.5310535"
         y="-6.804359"
         ry="0.0067420718"
         transform="rotate(90)" />
    </g>
  </g>
</svg>
